<?xml version="1.0" encoding="iso-8859-1"?>
<!-- Generator: Adobe Illustrator 19.0.0, SVG Export Plug-In . SVG Version: 6.00 Build 0)  -->
<svg version="1.1" id="Capa_1" xmlns="http://www.w3.org/2000/svg" xmlns:xlink="http://www.w3.org/1999/xlink" x="0px" y="0px"
	 viewBox="0 0 512 512" style="enable-background:new 0 0 512 512;" xml:space="preserve">
<polygon style="fill:#00459F;" points="450.65,512 418.65,512 397.87,456 114.13,456 93.35,512 61.35,512 115.78,365.28 
	143.91,375.72 125.26,426 386.74,426 368.09,375.72 396.22,365.28 "/>
<polygon style="fill:#002D6B;" points="450.65,512 418.65,512 397.87,456 256,456 256,426 386.74,426 368.09,375.72 396.22,365.28 
	"/>
<path style="fill:#FC025C;" d="M448.74,56.87v272.26c0,31.36-25.52,56.87-56.88,56.87H120.14c-31.36,0-56.88-25.51-56.88-56.87
	V56.87C63.26,25.51,88.78,0,120.14,0h271.72C423.22,0,448.74,25.51,448.74,56.87z"/>
<path style="fill:#CD0045;" d="M448.74,56.87v272.26c0,31.36-25.52,56.87-56.88,56.87H256V0h135.86
	C423.22,0,448.74,25.51,448.74,56.87z"/>
<rect x="122.57" y="78.15" style="fill:#D1FEFB;" width="266.86" height="122.26"/>
<g>
	<rect x="199" y="298" style="fill:#FFE670;" width="114" height="30"/>
	<rect x="118.77" y="298" style="fill:#FFE670;" width="30" height="30"/>
</g>
<g>
	<rect x="363.23" y="298" style="fill:#FFCF00;" width="30" height="30"/>
	<rect x="256" y="298" style="fill:#FFCF00;" width="57" height="30"/>
</g>
<rect x="256" y="78.15" style="fill:#85FDF5;" width="133.43" height="122.26"/>
<g>
</g>
<g>
</g>
<g>
</g>
<g>
</g>
<g>
</g>
<g>
</g>
<g>
</g>
<g>
</g>
<g>
</g>
<g>
</g>
<g>
</g>
<g>
</g>
<g>
</g>
<g>
</g>
<g>
</g>
</svg>
